:SAMPLES-PER-SECOND 30
:FULLY-SPECIFIED
:DEGREES
161
root  43.6919 38.2147 -2.20186 -18.4045 -84.6173 27.2863
RightUpLeg  -34.5644 -13.8486 -4.9798
RightLeg  29.3453 -2.55132 -1.7903
RightFoot  -4.71843 -0.184775 2.5777
RightToes  2.32829e-010 0 -3.6325e-017
Spine  36.1018 -2.16431 6.21814
Spine1  1.50062 0.0494223 -2.51535
HEad  -41.2404 -0.991705 -3.79598
LeftShoulder1  12.2502 -18.885 -47.7419
LeftArm  21.1005 -27.0614 -35.5903
LeftForeArm  3.78639 -21.486 -5.21138
LeftHand  -0.244104 0.0205437 5.32207
RightShoulder  7.80441 13.6697 39.3276
RightArm  -0.148519 24.6675 33.16
RightForeArm  -30.0084 17.7042 8.08546
RightHand  -1.84547 6.93423 -17.5735
LeftUpLeg  -34.4839 10.6201 -3.18363
LeftLeg  26.4198 2.60961 1.75046
LeftFoot  -3.33124 0.167996 -2.15507
LeftToes  1.42787e-010 7.94111e-011 2.6399e-011
162
root  43.7186 38.2121 -2.16211 -19.2819 -84.7031 28.2643
RightUpLeg  -34.7114 -13.9947 -5.00749
RightLeg  29.2564 -2.37963 -1.68068
RightFoot  -4.58164 -0.18851 2.63814
RightToes  2.32829e-010 0 -3.6325e-017
Spine  36.2454 -2.09886 6.03107
Spine1  1.27238 0.012823 -2.29211
HEad  -41.6012 -1.01413 -3.76979
LeftShoulder1  12.2554 -18.9518 -47.6172
LeftArm  20.5009 -25.6885 -35.3844
LeftForeArm  4.12875 -21.7413 -5.08779
LeftHand  -0.244104 0.0205437 5.32207
RightShoulder  7.72032 13.5902 39.0605
RightArm  0.192759 23.9448 32.9878
RightForeArm  -30.4097 18.7298 7.64764
RightHand  -1.89054 7.11403 -17.7409
LeftUpLeg  -34.6088 10.6694 -3.3445
LeftLeg  26.3565 2.65406 1.77053
LeftFoot  -3.15368 0.149564 -1.85345
LeftToes  1.42787e-010 7.94111e-011 2.6399e-011
163
root  43.7498 38.1871 -2.13098 -19.3241 -84.8291 28.2701
RightUpLeg  -34.7928 -14.0416 -4.96999
RightLeg  29.3213 -2.26721 -1.61628
RightFoot  -4.49537 -0.199626 2.8135
RightToes  2.32829e-010 0 -3.6325e-017
Spine  36.5705 -2.09459 5.9812
Spine1  1.10494 0.010443 -2.22521
HEad  -41.9614 -1.08877 -3.56487
LeftShoulder1  12.2193 -19.0128 -47.3419
LeftArm  20.1841 -24.7061 -35.0902
LeftForeArm  4.16839 -22.2312 -4.93476
LeftHand  -0.244104 0.0205437 5.32207
RightShoulder  7.65317 13.5415 38.8074
RightArm  -0.0515452 23.7537 32.6405
RightForeArm  -30.5789 19.3712 7.37182
RightHand  -1.89082 7.0908 -17.775
LeftUpLeg  -34.7477 10.7153 -3.33871
LeftLeg  26.5899 2.74251 1.83314
LeftFoot  -3.10415 0.139268 -1.6792
LeftToes  1.42787e-010 7.94111e-011 2.6399e-011
164
root  43.7845 38.1345 -2.10399 -19.0854 -84.982 28.0154
RightUpLeg  -35.0365 -13.9485 -4.90779
RightLeg  29.623 -2.22007 -1.60465
RightFoot  -4.45686 -0.201615 2.84747
RightToes  2.32829e-010 0 -3.6325e-017
Spine  36.9381 -2.12395 6.02894
Spine1  0.92284 0.0362854 -2.30974
HEad  -42.229 -1.14649 -3.3726
LeftShoulder1  12.2061 -19.0429 -47.2248
LeftArm  19.9857 -24.1385 -34.5027
LeftForeArm  4.24545 -22.7991 -4.82436
LeftHand  -0.244104 0.0205437 5.32207
RightShoulder  7.59374 13.5042 38.5671
RightArm  -0.60175 23.985 32.1879
RightForeArm  -30.8398 19.7 7.23889
RightHand  -1.88891 7.0323 -17.8372
LeftUpLeg  -35.049 10.7586 -3.29407
LeftLeg  27.0587 2.81758 1.90491
LeftFoot  -3.09638 0.130513 -1.52998
LeftToes  1.42787e-010 7.94111e-011 2.6399e-011
165
root  43.8205 38.062 -2.08126 -19.5453 -85.0883 28.5236
RightUpLeg  -35.5058 -13.8086 -4.9068
RightLeg  30.1742 -2.19766 -1.62212
RightFoot  -4.34757 -0.177592 2.47792
RightToes  2.32829e-010 0 -3.6325e-017
Spine  37.2416 -2.14525 6.03152
Spine1  0.721405 0.031795 -2.39561
HEad  -42.4927 -1.167 -3.29836
LeftShoulder1  12.2436 -19.0493 -47.3593
LeftArm  19.5455 -23.9082 -33.6631
LeftForeArm  4.8291 -23.247 -4.77175
LeftHand  -0.244104 0.0205437 5.32207
RightShoulder  7.52813 13.4788 38.2605
RightArm  -1.35853 24.4833 31.7777
RightForeArm  -31.2496 19.8363 7.18602
RightHand  -1.96065 7.14581 -18.3296
LeftUpLeg  -35.4856 10.7649 -3.35828
LeftLeg  27.6128 2.87939 1.97685
LeftFoot  -3.01972 0.110877 -1.21298
LeftToes  1.42787e-010 7.94111e-011 2.6399e-011
166
root  43.854 37.9879 -2.0659 -20.1775 -85.1229 29.1271
RightUpLeg  -35.9213 -13.7084 -4.94508
RightLeg  30.7969 -2.19723 -1.65778
RightFoot  -4.16117 -0.141017 1.91349
RightToes  2.32829e-010 0 -3.6325e-017
Spine  37.5492 -2.17985 6.02121
Spine1  0.562584 -0.00810869 -2.44872
HEad  -42.7798 -1.21404 -3.2711
LeftShoulder1  12.2881 -19.0546 -47.524
LeftArm  18.7645 -23.9326 -32.8886
LeftForeArm  5.64977 -23.5436 -4.75068
LeftHand  -0.244104 0.0205437 5.32207
RightShoulder  7.46473 13.4714 37.9197
RightArm  -2.31405 25.144 31.4282
RightForeArm  -31.6665 19.9489 7.13721
RightHand  -2.02982 7.22755 -18.8378
LeftUpLeg  -35.8539 10.7459 -3.45018
LeftLeg  28.1934 2.93331 2.04789
LeftFoot  -2.95282 0.084776 -0.797143
LeftToes  1.42787e-010 7.94111e-011 2.6399e-011
167
root  43.8811 37.9232 -2.05875 -19.7487 -85.1474 28.5768
RightUpLeg  -36.1257 -13.592 -4.92968
RightLeg  31.289 -2.25142 -1.7219
RightFoot  -4.03879 -0.121225 1.60912
RightToes  2.32829e-010 0 -3.6325e-017
Spine  37.8918 -2.23317 6.11671
Spine1  0.451891 -0.00563103 -2.54583
HEad  -42.9777 -1.35185 -3.20786
LeftShoulder1  12.3134 -19.0772 -47.5748
LeftArm  17.7651 -24.1793 -32.3492
LeftForeArm  6.10252 -23.7383 -4.75819
LeftHand  -0.244104 0.0205437 5.32207
RightShoulder  7.40234 13.4584 37.5972
RightArm  -3.31049 25.8622 31.0944
RightForeArm  -31.9054 20.2295 7.02765
RightHand  -1.9972 7.08284 -18.7495
LeftUpLeg  -36.1154 10.7873 -3.42759
LeftLeg  28.7982 2.91537 2.08006
LeftFoot  -3.01789 0.0685944 -0.53738
LeftToes  1.42787e-010 7.94111e-011 2.6399e-011
168
root  43.8985 37.8681 -2.05712 -18.5314 -85.195 27.3277
RightUpLeg  -36.318 -13.4153 -4.85916
RightLeg  31.6403 -2.34603 -1.80565
RightFoot  -4.05077 -0.123495 1.64658
RightToes  2.32829e-010 0 -3.6325e-017
Spine  38.1367 -2.24231 6.25151
Spine1  0.344065 0.0656759 -2.63208
HEad  -43.1014 -1.53528 -3.13869
LeftShoulder1  12.3525 -19.1027 -47.6737
LeftArm  16.6279 -24.6276 -31.8826
LeftForeArm  6.20493 -23.8517 -4.77712
LeftHand  -0.244104 0.0205437 5.32207
RightShoulder  7.33381 13.4252 37.2887
RightArm  -4.10204 26.5811 30.7344
RightForeArm  -31.9845 20.7113 6.86947
RightHand  -1.94888 6.97978 -18.459
LeftUpLeg  -36.4199 10.9004 -3.34266
LeftLeg  29.3475 2.81145 2.05649
LeftFoot  -3.17682 0.0674772 -0.513888
LeftToes  1.42787e-010 7.94111e-011 2.6399e-011
169
root  43.9036 37.8246 -2.0585 -17.906 -85.217 26.7841
RightUpLeg  -36.5941 -13.2972 -4.82289
RightLeg  31.9574 -2.41439 -1.87143
RightFoot  -4.11951 -0.129263 1.73763
RightToes  2.32829e-010 0 -3.6325e-017
Spine  38.2184 -2.18212 6.26696
Spine1  0.251592 0.13168 -2.59549
HEad  -43.2942 -1.69674 -3.10719
LeftShoulder1  12.4202 -19.1106 -47.9225
LeftArm  15.2806 -25.1891 -31.3608
LeftForeArm  6.48394 -23.9773 -4.79
LeftHand  -0.244104 0.0205437 5.32207
RightShoulder  7.27692 13.408 37.0055
RightArm  -4.63766 27.32 30.3211
RightForeArm  -32.1366 21.2436 6.73212
RightHand  -1.99188 7.10938 -18.6634
LeftUpLeg  -36.7405 11.0076 -3.33557
LeftLeg  29.7396 2.69955 2.01506
LeftFoot  -3.30437 0.0704689 -0.556667
LeftToes  1.42787e-010 7.94111e-011 2.6399e-011
170
root  43.8952 37.7969 -2.06172 -18.2215 -85.1795 27.0638
RightUpLeg  -36.6951 -13.3333 -4.86485
RightLeg  32.2529 -2.42467 -1.89773
RightFoot  -4.20065 -0.129637 1.74414
RightToes  2.32829e-010 0 -3.6325e-017
Spine  38.2735 -2.13863 6.19011
Spine1  0.226561 0.140679 -2.55357
HEad  -43.5018 -1.87032 -3.06161
LeftShoulder1  12.4632 -19.127 -48.0553
LeftArm  13.6694 -25.7118 -30.9448
LeftForeArm  7.04698 -24.3416 -4.84013
LeftHand  -0.244104 0.0205437 5.32207
RightShoulder  7.25682 13.4453 36.7982
RightArm  -5.02119 28.0741 29.9096
RightForeArm  -32.4566 21.7123 6.64621
RightHand  -2.03502 7.12992 -19.0251
LeftUpLeg  -36.8331 11.0681 -3.38737
LeftLeg  29.9918 2.62969 1.98859
LeftFoot  -3.37671 0.0685136 -0.525247
LeftToes  1.42787e-010 7.94111e-011 2.6399e-011
171
root  43.8748 37.7843 -2.06348 -18.5954 -85.1257 27.1914
RightUpLeg  -36.4709 -13.4061 -4.95045
RightLeg  32.4495 -2.40463 -1.89699
RightFoot  -4.34364 -0.131763 1.77678
RightToes  2.32829e-010 0 -3.6325e-017
Spine  38.4001 -2.1882 6.15784
Spine1  0.240112 0.124077 -2.72868
HEad  -43.5399 -2.06054 -2.94444
LeftShoulder1  12.4284 -19.1793 -47.8063
LeftArm  11.8968 -26.1123 -30.7777
LeftForeArm  7.60396 -25.1051 -4.97908
LeftHand  -0.244104 0.0205437 5.32207
RightShoulder  7.26711 13.515 36.6859
RightArm  -5.20039 28.7964 29.6084
RightForeArm  -32.6385 22.1575 6.58475
RightHand  -1.96289 6.84694 -18.777
LeftUpLeg  -36.632 11.0718 -3.37054
LeftLeg  30.185 2.60873 1.98831
LeftFoot  -3.47373 0.0654236 -0.479147
LeftToes  1.42787e-010 7.94111e-011 2.6399e-011
172
root  43.8417 37.7821 -2.05958 -18.6427 -85.1243 26.987
RightUpLeg  -36.1666 -13.368 -5.02828
RightLeg  32.5431 -2.38804 -1.89162
RightFoot  -4.52629 -0.135716 1.83657
RightToes  2.32829e-010 0 -3.6325e-017
Spine  38.479 -2.26825 6.15706
Spine1  0.200406 0.118844 -3.05967
HEad  -43.501 -2.12775 -2.81372
LeftShoulder1  12.3387 -19.2261 -47.3542
LeftArm  10.0153 -26.4616 -30.7144
LeftForeArm  8.29064 -26.2086 -5.1895
LeftHand  -0.244104 0.0205437 5.32207
RightShoulder  7.2802 13.5637 36.6417
RightArm  -5.02315 29.4897 29.3953
RightForeArm  -32.4048 22.6883 6.5254
RightHand  -1.85506 6.64528 -18.0693
LeftUpLeg  -36.3559 10.9966 -3.26348
LeftLeg  30.3327 2.66796 2.03553
LeftFoot  -3.63923 0.0678795 -0.522455
LeftToes  1.42787e-010 7.94111e-011 2.6399e-011
173
root  43.7915 37.7858 -2.05274 -18.7871 -85.1803 26.9946
RightUpLeg  -35.9761 -13.2605 -5.07674
RightLeg  32.6363 -2.39716 -1.90397
RightFoot  -4.66884 -0.133301 1.79616
RightToes  2.32829e-010 0 -3.6325e-017
Spine  38.4108 -2.26793 6.08877
Spine1  0.110195 0.131149 -3.2732
HEad  -43.649 -2.02556 -2.7589
LeftShoulder1  12.266 -19.2328 -47.0546
LeftArm  7.91039 -26.8573 -30.5992
LeftForeArm  9.44936 -27.5258 -5.42817
LeftHand  -0.244104 0.0205437 5.32207
RightShoulder  7.28275 13.5764 36.6253
RightArm  -4.65605 30.1702 29.0803
RightForeArm  -32.1082 23.4003 6.5081
RightHand  -1.81778 6.70651 -17.6314
LeftUpLeg  -36.1462 10.8939 -3.14714
LeftLeg  30.4489 2.78988 2.12067
LeftFoot  -3.84338 0.0730841 -0.61197
LeftToes  1.42787e-010 7.94111e-011 2.6399e-011
